
        <svg xmlns="http://www.w3.org/2000/svg" xmlns:xlink="http://www.w3.org/1999/xlink" version="1.1" width="3162.162162162162" 
        height="529.6514778176604" viewBox="0 0 3162.162162162162 529.6514778176604">
			
			<g transform="scale(8.108108108108107) translate(10, 10)">
				<defs id="SvgjsDefs2005"><linearGradient id="SvgjsLinearGradient2010"><stop id="SvgjsStop2011" stop-color="#ef4136" offset="0"></stop><stop id="SvgjsStop2012" stop-color="#fbb040" offset="1"></stop></linearGradient><linearGradient id="SvgjsLinearGradient2013"><stop id="SvgjsStop2014" stop-color="#ef4136" offset="0"></stop><stop id="SvgjsStop2015" stop-color="#fbb040" offset="1"></stop></linearGradient></defs><g id="SvgjsG2006" featureKey="symbolFeature-0" transform="matrix(0.7789224982261658,0,0,0.7789224982261658,-4.115826667880111,-15.219624405644419)" fill="url(#SvgjsLinearGradient2010)"><path xmlns="http://www.w3.org/2000/svg" fill="url(#SvgjsLinearGradient2010)" d="M66.843,31.367c-0.534-0.224-1.153,0.022-1.382,0.56c-0.227,0.537,0.025,1.155,0.562,1.382  c7.359,3.113,13.035,9.237,15.572,16.803c0.146,0.442,0.558,0.72,0.999,0.72c0.111,0,0.224-0.017,0.336-0.054  c0.552-0.185,0.848-0.783,0.663-1.335C80.866,41.303,74.759,34.715,66.843,31.367z M95.116,47.858  c-3.514-13.195-13.315-23.76-26.218-28.261c-0.55-0.188-1.151,0.098-1.343,0.649c-0.194,0.55,0.097,1.151,0.647,1.343  c12.244,4.27,21.543,14.293,24.875,26.811c0.126,0.473,0.552,0.784,1.02,0.784c0.089,0,0.181-0.011,0.272-0.035  C94.93,48.998,95.266,48.42,95.116,47.858z M55.18,40.225c-1.913,0-3.851,0.32-5.771,0.955c-2.723-5.286-8.179-8.65-14.161-8.65  c-7.865,0-14.456,5.719-15.673,13.443c-8.083,0.836-14.291,7.616-14.291,15.807c0,7.988,5.961,14.675,13.786,15.739l-0.049,0.208  H55.18c10.339,0,18.75-8.411,18.75-18.75C73.929,48.637,65.518,40.225,55.18,40.225z M55.18,75.617h-33.49l0.004-0.012l-1.258-0.072  c-7.313-0.422-13.043-6.464-13.043-13.753c0-7.36,5.784-13.408,13.169-13.767l0.904-0.044l0.093-0.901  c0.729-7.086,6.613-12.428,13.69-12.428c5.476,0,10.442,3.249,12.654,8.277l0.406,0.92l0.937-0.359  c1.977-0.758,3.975-1.142,5.936-1.142c9.175,0,16.641,7.466,16.641,16.642C71.821,68.152,64.355,75.617,55.18,75.617z"></path></g><g id="SvgjsG2007" featureKey="nameFeature-0" transform="matrix(1.405351996421814,0,0,1.405351996421814,89.99997319503811,-13.881088172701155)" fill="url(#SvgjsLinearGradient2013)"><path d="M5.4688 12.012 l0.000019073 18.555 c0 1.5104 -0.53385 2.7994 -1.6016 3.8672 c-1.0677 1.0807 -2.3568 1.6211 -3.8672 1.6211 l0 4.2383 c2.6822 0 4.974 -0.95053 6.875 -2.8516 s2.8516 -4.1928 2.8516 -6.875 l0 -18.555 l-4.2578 0 z M17.08985 12.09 l-4.2383 0 l0 27.91 l4.2383 0 l0 -27.91 z M37.93 12.050999999999998 l-17.676 27.949 l5.0195 0 l4.1211 -6.5234 l9.4922 0 l0 6.5234 l4.2578 0 l0 -27.949 l-5.2148 0 z M38.887 18.477 l0 10.762 l-6.8164 0 z M64.00440625 12.050999999999998 l0 19.98 l-11.934 -19.98 l-4.4336 0 l0 27.949 l4.2383 0 l0 -19.98 l11.953 19.98 l4.4336 0 l0 -27.949 l-4.2578 0 z M87.12903125 12.050999999999998 l-5.918 10.039 l-5.918 -10.039 l-4.9219 0 l8.7109 14.805 l0 13.145 l4.2578 0 l0 -13.145 l8.7109 -14.805 l-4.9219 0 z M97.50005 37.3437 c-1.9401 -1.9401 -2.9102 -4.2838 -2.9102 -7.0313 l0 -18.281 l4.2578 0 l0 18.281 c0 1.5755 0.55338 2.9166 1.6602 4.0234 c1.1198 1.1198 2.4609 1.6797 4.0234 1.6797 c1.5755 0 2.9166 -0.5599 4.0234 -1.6797 c1.1198 -1.1068 1.6797 -2.4479 1.6797 -4.0234 l0 -18.281 l4.2578 0 l0 18.281 c0 2.7475 -0.97656 5.0912 -2.9297 7.0313 c-1.9401 1.9401 -4.2838 2.9102 -7.0313 2.9102 c-2.7344 0 -5.0781 -0.97006 -7.0313 -2.9102 z M119.27739375 12.050999999999998 l0 27.949 l14.258 0 l0 -4.2383 l-10.02 0 l0 -7.6563 l7.7344 0 l0 -4.2383 l-7.7344 0 l0 -7.5781 l10.02 0 l0 -4.2383 l-14.258 0 z M136.93364375 12.050999999999998 l0 27.949 l14.258 0 l0 -4.2383 l-10.02 0 l0 -23.711 l-4.2383 0 z M170.80109375 12.050999999999998 l-17.676 27.949 l5.0195 0 l4.1211 -6.5234 l9.4922 0 l0 6.5234 l4.2578 0 l0 -27.949 l-5.2148 0 z M171.75809375 18.477 l0 10.762 l-6.8164 0 z M185.0781 23.828 l4.5313 -0.000038146 c1.0417 0 1.9271 -0.37109 2.6563 -1.1133 c0.74219 -0.72916 1.1133 -1.6146 1.1133 -2.6563 s-0.37109 -1.9271 -1.1133 -2.6563 c-0.72916 -0.74219 -1.6146 -1.1133 -2.6563 -1.1133 l-4.5313 0 l0 7.5391 z M185.0781 35.7617 l6.0742 0.000019073 c1.0547 0 1.9596 -0.3776 2.7148 -1.1328 c0.74219 -0.75521 1.1133 -1.6667 1.1133 -2.7344 c0 -1.0547 -0.37109 -1.9531 -1.1133 -2.6953 c-0.75521 -0.75521 -1.6602 -1.1328 -2.7148 -1.1328 l-6.0742 0 l0 7.6953 z M180.8398 39.999980927 l0.000019073 -27.949 l8.7695 0 c2.2135 0 4.1016 0.78125 5.6641 2.3438 c1.5625 1.5755 2.3438 3.4635 2.3438 5.6641 c0 1.9662 -0.6315 3.6914 -1.8945 5.1758 c1.0807 0.74219 1.9271 1.6927 2.5391 2.8516 c0.65104 1.1849 0.97656 2.4545 0.97656 3.8086 c0 2.2396 -0.79428 4.1471 -2.3828 5.7227 c-1.5755 1.5885 -3.4766 2.3828 -5.7031 2.3828 l-10.313 0 z"></path></g>
			</g>
		</svg>
	